<svg width="357" height="48" viewBox="0 0 357 48" fill="none" xmlns="http://www.w3.org/2000/svg">
<path d="M0.66325 47L0.66325 2.968H3.99125L22.9993 34.136H20.6313L39.6393 2.968H42.9673L42.9673 47H38.2313V11.16L39.3193 11.416L23.4473 37.464H20.1193L4.24725 11.416L5.33525 11.16L5.33525 47H0.66325ZM66.9633 47.64C63.9339 47.64 61.2246 46.9573 58.8353 45.592C56.4459 44.2267 54.5473 42.3493 53.1393 39.96C51.7739 37.5707 51.0913 34.8827 51.0913 31.896C51.0913 28.952 51.7739 26.3067 53.1393 23.96C54.5046 21.5707 56.3606 19.6933 58.7073 18.328C61.0539 16.9627 63.6779 16.28 66.5793 16.28C69.3099 16.28 71.7206 16.8987 73.8113 18.136C75.9446 19.3733 77.6086 21.1013 78.8033 23.32C80.0406 25.496 80.6593 28.0133 80.6593 30.872C80.6593 31.2133 80.6379 31.6187 80.5953 32.088C80.5526 32.5147 80.4673 33.0267 80.3393 33.624L54.2913 33.624V29.784L77.9073 29.784L76.3073 31.192C76.3499 28.9733 75.9659 27.0747 75.1553 25.496C74.3873 23.8747 73.2566 22.6373 71.7633 21.784C70.3126 20.888 68.5419 20.44 66.4513 20.44C64.2753 20.44 62.3766 20.9093 60.7553 21.848C59.1339 22.7867 57.8539 24.1093 56.9153 25.816C56.0193 27.48 55.5713 29.464 55.5713 31.768C55.5713 34.072 56.0406 36.0987 56.9792 37.848C57.9606 39.5973 59.3046 40.9627 61.0113 41.944C62.7606 42.9253 64.7659 43.416 67.0273 43.416C68.8619 43.416 70.5473 43.096 72.0833 42.456C73.6193 41.7733 74.9206 40.7707 75.9873 39.448L78.8673 42.392C77.4593 44.056 75.7099 45.3573 73.6193 46.296C71.5713 47.192 69.3526 47.64 66.9633 47.64ZM91.0598 47L91.0598 4.248L95.5398 4.248L95.5398 47H91.0598ZM83.4438 20.952V16.92H103.092V20.952H83.4438ZM121.256 47.64C118.398 47.64 115.838 46.9573 113.576 45.592C111.315 44.184 109.523 42.3067 108.2 39.96C106.92 37.6133 106.28 34.968 106.28 32.024C106.28 29.0373 106.92 26.3707 108.2 24.024C109.523 21.6347 111.315 19.7573 113.576 18.392C115.838 16.984 118.376 16.28 121.192 16.28C123.496 16.28 125.544 16.7493 127.336 17.688C129.171 18.584 130.643 19.864 131.752 21.528C132.904 23.1493 133.608 25.048 133.864 27.224V36.632C133.608 38.808 132.904 40.728 131.752 42.392C130.643 44.056 129.171 45.3573 127.336 46.296C125.544 47.192 123.518 47.64 121.256 47.64ZM121.96 43.352C125.075 43.352 127.571 42.3067 129.448 40.216C131.368 38.1253 132.328 35.3733 132.328 31.96C132.328 29.6987 131.88 27.7147 130.984 26.008C130.131 24.2587 128.915 22.9147 127.336 21.976C125.8 20.9947 123.987 20.504 121.896 20.504C119.763 20.504 117.864 20.9947 116.2 21.976C114.579 22.9573 113.278 24.3227 112.296 26.072C111.358 27.7787 110.888 29.7413 110.888 31.96C110.888 34.1787 111.358 36.1413 112.296 37.848C113.278 39.5547 114.6 40.8987 116.264 41.88C117.928 42.8613 119.827 43.352 121.96 43.352ZM132.072 47V38.936L132.968 31.512L132.072 24.28V16.92H136.552V47H132.072ZM166.886 47.704C163.515 47.704 160.379 47.128 157.478 45.976C154.619 44.7813 152.102 43.1173 149.926 40.984C147.792 38.8507 146.128 36.376 144.934 33.56C143.739 30.7013 143.142 27.6293 143.142 24.344C143.142 21.0587 143.739 18.008 144.934 15.192C146.128 12.3333 147.792 9.85867 149.926 7.768C152.059 5.67733 154.555 4.056 157.414 2.904C160.315 1.70933 163.451 1.112 166.822 1.112C170.406 1.112 173.584 1.688 176.358 2.84C179.174 3.992 181.627 5.57066 183.718 7.576L176.998 14.36C175.803 13.08 174.352 12.0773 172.646 11.352C170.982 10.6267 169.04 10.264 166.822 10.264C164.859 10.264 163.046 10.6053 161.382 11.288C159.76 11.928 158.352 12.8667 157.158 14.104C156.006 15.3413 155.088 16.8347 154.406 18.584C153.766 20.3333 153.446 22.2533 153.446 24.344C153.446 26.4773 153.766 28.4187 154.406 30.168C155.088 31.9173 156.006 33.4107 157.158 34.648C158.352 35.8853 159.76 36.8453 161.382 37.528C163.046 38.2107 164.859 38.552 166.822 38.552C169.126 38.552 171.131 38.1893 172.838 37.464C174.544 36.7387 176.016 35.736 177.254 34.456L184.038 41.24C181.862 43.2453 179.366 44.824 176.55 45.976C173.776 47.128 170.555 47.704 166.886 47.704ZM202.499 47.704C199.64 47.704 197.101 47.128 194.883 45.976C192.707 44.7813 191 43.16 189.763 41.112C188.525 39.0213 187.907 36.632 187.907 33.944V15.896L197.699 15.896V33.816C197.699 34.8827 197.869 35.8 198.211 36.568C198.595 37.336 199.149 37.9333 199.875 38.36C200.6 38.7867 201.475 39 202.499 39C203.949 39 205.101 38.552 205.955 37.656C206.808 36.7173 207.235 35.4373 207.235 33.816V15.896H217.027V33.88C217.027 36.6107 216.408 39.0213 215.171 41.112C213.933 43.16 212.227 44.7813 210.051 45.976C207.875 47.128 205.357 47.704 202.499 47.704ZM223.175 47V0.535999L232.967 0.535999V47H223.175ZM244.278 47V3.032L254.07 3.032V47H244.278ZM237.238 24.216V15.896L261.11 15.896V24.216L237.238 24.216ZM279.249 47.704C276.39 47.704 273.851 47.128 271.633 45.976C269.457 44.7813 267.75 43.16 266.513 41.112C265.275 39.0213 264.657 36.632 264.657 33.944V15.896H274.449V33.816C274.449 34.8827 274.619 35.8 274.961 36.568C275.345 37.336 275.899 37.9333 276.625 38.36C277.35 38.7867 278.225 39 279.249 39C280.699 39 281.851 38.552 282.705 37.656C283.558 36.7173 283.985 35.4373 283.985 33.816V15.896H293.777V33.88C293.777 36.6107 293.158 39.0213 291.921 41.112C290.683 43.16 288.977 44.7813 286.801 45.976C284.625 47.128 282.107 47.704 279.249 47.704ZM299.925 47V15.896H309.717V47H299.925ZM309.717 29.912L305.621 26.712C306.431 23.0853 307.797 20.2693 309.717 18.264C311.637 16.2587 314.303 15.256 317.717 15.256C319.21 15.256 320.511 15.4907 321.621 15.96C322.773 16.3867 323.775 17.0693 324.629 18.008L318.805 25.368C318.378 24.8987 317.845 24.536 317.205 24.28C316.565 24.024 315.839 23.896 315.029 23.896C313.407 23.896 312.106 24.408 311.125 25.432C310.186 26.4133 309.717 27.9067 309.717 29.912ZM341.722 47.704C338.352 47.704 335.344 47.0213 332.698 45.656C330.096 44.248 328.048 42.3067 326.554 39.832C325.061 37.3573 324.314 34.5627 324.314 31.448C324.314 28.3333 325.04 25.56 326.49 23.128C327.984 20.6533 329.989 18.712 332.506 17.304C335.024 15.896 337.861 15.192 341.018 15.192C344.09 15.192 346.8 15.8533 349.146 17.176C351.493 18.4987 353.328 20.3333 354.65 22.68C356.016 25.0267 356.698 27.7147 356.698 30.744C356.698 31.2987 356.656 31.896 356.57 32.536C356.528 33.1333 356.421 33.8373 356.25 34.648L329.434 34.712V27.992L352.09 27.928L347.866 30.744C347.824 28.952 347.546 27.48 347.034 26.328C346.522 25.1333 345.754 24.2373 344.73 23.64C343.749 23 342.533 22.68 341.082 22.68C339.546 22.68 338.202 23.0427 337.05 23.768C335.941 24.4507 335.066 25.432 334.426 26.712C333.829 27.992 333.53 29.5493 333.53 31.384C333.53 33.2187 333.85 34.7973 334.49 36.12C335.173 37.4 336.112 38.4027 337.306 39.128C338.544 39.8107 339.994 40.152 341.658 40.152C343.194 40.152 344.581 39.896 345.818 39.384C347.056 38.8293 348.144 38.0187 349.082 36.952L354.458 42.328C352.922 44.12 351.066 45.464 348.89 46.36C346.714 47.256 344.325 47.704 341.722 47.704Z" fill="white"></path>
</svg>